<svg width="40" height="40" viewBox="0 0 40 40" fill="none" xmlns="http://www.w3.org/2000/svg">
<g clip-path="url(#clip0_4_3257)">
<rect width="40" height="40" rx="20" fill="#4F378B"/>
<path d="M17.9594 21.2969H19.9125C19.85 22.0417 19.6417 22.7057 19.2875 23.2891C18.9333 23.8672 18.4359 24.3229 17.7953 24.6562C17.1547 24.9896 16.376 25.1562 15.4594 25.1562C14.7563 25.1562 14.1234 25.0312 13.5609 24.7812C12.9984 24.526 12.5167 24.1667 12.1156 23.7031C11.7146 23.2344 11.4073 22.6693 11.1938 22.0078C10.9854 21.3464 10.8813 20.6068 10.8813 19.7891V18.8438C10.8813 18.026 10.988 17.2865 11.2016 16.625C11.4203 15.9635 11.7328 15.3984 12.1391 14.9297C12.5453 14.4557 13.0323 14.0938 13.6 13.8438C14.1729 13.5938 14.8161 13.4688 15.5297 13.4688C16.4359 13.4688 17.2016 13.6354 17.8266 13.9688C18.4516 14.3021 18.9359 14.763 19.2797 15.3516C19.6286 15.9401 19.8422 16.6146 19.9203 17.375H17.9672C17.9151 16.8854 17.8005 16.4661 17.6234 16.1172C17.4516 15.7682 17.1964 15.5026 16.8578 15.3203C16.5193 15.1328 16.0766 15.0391 15.5297 15.0391C15.0818 15.0391 14.6911 15.1224 14.3578 15.2891C14.0245 15.4557 13.7458 15.7005 13.5219 16.0234C13.2979 16.3464 13.1286 16.7448 13.0141 17.2188C12.9047 17.6875 12.85 18.224 12.85 18.8281V19.7891C12.85 20.362 12.8995 20.8828 12.9984 21.3516C13.1026 21.8151 13.2589 22.2135 13.4672 22.5469C13.6807 22.8802 13.9516 23.138 14.2797 23.3203C14.6078 23.5026 15.001 23.5938 15.4594 23.5938C16.0167 23.5938 16.4672 23.5052 16.8109 23.3281C17.1599 23.151 17.4229 22.8932 17.6 22.5547C17.7823 22.2109 17.9021 21.7917 17.9594 21.2969ZM21.2969 20.8672V20.6875C21.2969 20.0781 21.3854 19.513 21.5625 18.9922C21.7396 18.4661 21.9948 18.0104 22.3281 17.625C22.6667 17.2344 23.0781 16.9323 23.5625 16.7188C24.0521 16.5 24.6042 16.3906 25.2188 16.3906C25.8385 16.3906 26.3906 16.5 26.875 16.7188C27.3646 16.9323 27.7786 17.2344 28.1172 17.625C28.4557 18.0104 28.7135 18.4661 28.8906 18.9922C29.0677 19.513 29.1562 20.0781 29.1562 20.6875V20.8672C29.1562 21.4766 29.0677 22.0417 28.8906 22.5625C28.7135 23.0833 28.4557 23.5391 28.1172 23.9297C27.7786 24.3151 27.3672 24.6172 26.8828 24.8359C26.3984 25.0495 25.849 25.1562 25.2344 25.1562C24.6146 25.1562 24.0599 25.0495 23.5703 24.8359C23.0859 24.6172 22.6745 24.3151 22.3359 23.9297C21.9974 23.5391 21.7396 23.0833 21.5625 22.5625C21.3854 22.0417 21.2969 21.4766 21.2969 20.8672ZM23.1797 20.6875V20.8672C23.1797 21.2474 23.2188 21.6068 23.2969 21.9453C23.375 22.2839 23.4974 22.5807 23.6641 22.8359C23.8307 23.0911 24.0443 23.2917 24.3047 23.4375C24.5651 23.5833 24.875 23.6562 25.2344 23.6562C25.5833 23.6562 25.8854 23.5833 26.1406 23.4375C26.401 23.2917 26.6146 23.0911 26.7812 22.8359C26.9479 22.5807 27.0703 22.2839 27.1484 21.9453C27.2318 21.6068 27.2734 21.2474 27.2734 20.8672V20.6875C27.2734 20.3125 27.2318 19.9583 27.1484 19.625C27.0703 19.2865 26.9453 18.987 26.7734 18.7266C26.6068 18.4661 26.3932 18.263 26.1328 18.1172C25.8776 17.9661 25.5729 17.8906 25.2188 17.8906C24.8646 17.8906 24.5573 17.9661 24.2969 18.1172C24.0417 18.263 23.8307 18.4661 23.6641 18.7266C23.4974 18.987 23.375 19.2865 23.2969 19.625C23.2188 19.9583 23.1797 20.3125 23.1797 20.6875Z" fill="#EADDFF"/>
</g>
<defs>
<clipPath id="clip0_4_3257">
<rect width="40" height="40" rx="20" fill="white"/>
</clipPath>
</defs>
</svg>
